<svg width="40" height="40" viewBox="0 0 40 40" fill="none" xmlns="http://www.w3.org/2000/svg">
<circle cx="20" cy="20" r="20" fill="#EEF1F5"/>
<circle cx="20" cy="14" r="6" fill="#D3DCE7"/>
<path d="M10.1961 23.9475C10.6707 22.2073 12.2514 21 14.0552 21H25.9448C27.7486 21 29.3293 22.2073 29.8039 23.9475L30.9665 28.2106C31.487 30.1191 30.0504 32 28.0722 32H11.9278C9.94963 32 8.51298 30.1191 9.03346 28.2106L10.1961 23.9475Z" fill="#D3DCE7"/>
<path fill-rule="evenodd" clip-rule="evenodd" d="M19.0045 22.3033C18.5015 22.0261 18.167 21.5446 18.167 21H21.8189C21.8189 21.5446 21.4844 22.0261 20.9814 22.3033L21.9877 28.1516C22.021 28.3447 21.9383 28.5395 21.7763 28.6497L20.2742 29.6719C20.1045 29.7874 19.8814 29.7874 19.7116 29.6719L18.2096 28.6497C18.0475 28.5395 17.9649 28.3447 17.9981 28.1516L19.0045 22.3033Z" fill="#9EAAB8"/>
</svg>
